<svg xmlns="http://www.w3.org/2000/svg" viewBox="0 0 224 224" width="224" height="224"><rect x="79.70" y="31.70" width="64.60" height="16.60" fill="#6C5CE7"/><rect x="63.70" y="47.70" width="32.60" height="16.60" fill="#9286F0"/><rect x="95.70" y="47.70" width="64.60" height="16.60" fill="#6C5CE7"/><rect x="47.70" y="63.70" width="16.60" height="16.60" fill="#9286F0"/><rect x="63.70" y="63.70" width="112.60" height="16.60" fill="#6C5CE7"/><rect x="47.70" y="79.70" width="16.60" height="16.60" fill="#9286F0"/><rect x="63.70" y="79.70" width="32.60" height="16.60" fill="#6C5CE7"/><rect x="127.70" y="79.70" width="48.60" height="16.60" fill="#6C5CE7"/><rect x="31.70" y="95.70" width="48.60" height="16.60" fill="#6C5CE7"/><rect x="95.70" y="95.70" width="32.60" height="16.60" fill="#6C5CE7"/><rect x="143.70" y="95.70" width="48.60" height="16.60" fill="#6C5CE7"/><rect x="31.70" y="111.70" width="48.60" height="16.60" fill="#6C5CE7"/><rect x="95.70" y="111.70" width="32.60" height="16.60" fill="#6C5CE7"/><rect x="143.70" y="111.70" width="48.60" height="16.60" fill="#6C5CE7"/><rect x="31.70" y="127.70" width="64.60" height="16.60" fill="#6C5CE7"/><rect x="127.70" y="127.70" width="48.60" height="16.60" fill="#6C5CE7"/><rect x="175.70" y="127.70" width="16.60" height="16.60" fill="#5546C8"/><rect x="31.70" y="143.70" width="144.60" height="16.60" fill="#6C5CE7"/><rect x="175.70" y="143.70" width="16.60" height="16.60" fill="#5546C8"/><rect x="47.70" y="159.70" width="112.60" height="16.60" fill="#6C5CE7"/><rect x="159.70" y="159.70" width="16.60" height="16.60" fill="#5546C8"/><rect x="63.70" y="175.70" width="96.60" height="16.60" fill="#5546C8"/><rect x="95.70" y="79.70" width="32.60" height="16.60" fill="#CFC8FF"/><rect x="79.70" y="95.70" width="16.60" height="16.60" fill="#CFC8FF"/><rect x="127.70" y="95.70" width="16.60" height="16.60" fill="#CFC8FF"/><rect x="79.70" y="111.70" width="16.60" height="16.60" fill="#CFC8FF"/><rect x="127.70" y="111.70" width="16.60" height="16.60" fill="#CFC8FF"/><rect x="95.70" y="127.70" width="32.60" height="16.60" fill="#CFC8FF"/></svg>